# xmcd
#
# Track frame offsets:
#	182
#	21132
#	37685
#	55910
#	77995
#	98575
#	117792
#	135762
#	154945
#	172917
#
# Disc length: 2564 seconds
#
# Revision: 0
# Processed by: cddbd v1.5.1PL2 Copyright (c) Steve Scherf et al.
# Submitted via: dBpowerAMP V4.0
#
DISCID=680a020a
DTITLE=Apolonia - Déstination L'ambiance
DYEAR=1994
DGENRE=Sega
TTITLE0=Mon Kafrine La Réunion
TTITLE1=Mon Zenesse
TTITLE2=Si Ton Ker Lé Pas Pret
TTITLE3=Fé Mazine A Moin
TTITLE4=Mon Tantine
TTITLE5=La Joie Dan'Ker
TTITLE6=Fé Pété
TTITLE7=Ensemble
TTITLE8=La Pas Besoin
TTITLE9=Avant
EXTD=
EXTT0=
EXTT1=
EXTT2=
EXTT3=
EXTT4=
EXTT5=
EXTT6=
EXTT7=
EXTT8=
EXTT9=
PLAYORDER=
